<svg xmlns="http://www.w3.org/2000/svg" viewBox="0 0 64 64" role="img" aria-label="Manga Studio">
  <title>Manga Studio</title>
  <desc>App icon  manga panel grid with a speech bubble, evoking comic-drama storytelling.</desc>
  <defs>
    <linearGradient id="manga-bg" x1="0" y1="0" x2="1" y2="1">
      <stop offset="0" stop-color="#F472B6"/>
      <stop offset="0.55" stop-color="#A855F7"/>
      <stop offset="1" stop-color="#6D28D9"/>
    </linearGradient>
    <linearGradient id="manga-paper" x1="0" y1="0" x2="0" y2="1">
      <stop offset="0" stop-color="#FFFFFF"/>
      <stop offset="1" stop-color="#FCE7F3"/>
    </linearGradient>
    <filter id="manga-shadow" x="-20%" y="-20%" width="140%" height="140%">
      <feDropShadow dx="0" dy="2" stdDeviation="1.2" flood-color="#4C1D95" flood-opacity="0.32"/>
    </filter>
  </defs>
  <rect width="64" height="64" rx="17" fill="url(#manga-bg)"/>
  <circle cx="50" cy="13" r="18" fill="#FBCFE8" opacity="0.28"/>
  <circle cx="14" cy="52" r="19" fill="#DDD6FE" opacity="0.28"/>
  <rect x="6" y="6" width="52" height="52" rx="15" fill="rgba(255,255,255,0.10)" stroke="rgba(255,255,255,0.28)" stroke-width="1.5"/>
  <g filter="url(#manga-shadow)">
    <rect x="13" y="14" width="16" height="14" rx="2.5" fill="url(#manga-paper)" stroke="#1F2937" stroke-width="1.4"/>
    <rect x="31" y="14" width="20" height="14" rx="2.5" fill="url(#manga-paper)" stroke="#1F2937" stroke-width="1.4"/>
    <rect x="13" y="30" width="20" height="20" rx="2.5" fill="url(#manga-paper)" stroke="#1F2937" stroke-width="1.4"/>
    <rect x="35" y="30" width="16" height="20" rx="2.5" fill="url(#manga-paper)" stroke="#1F2937" stroke-width="1.4"/>
    <line x1="16" y1="19" x2="26" y2="19" stroke="#9333EA" stroke-width="1.2" stroke-linecap="round"/>
    <line x1="16" y1="22" x2="22" y2="22" stroke="#9333EA" stroke-width="1.2" stroke-linecap="round"/>
    <circle cx="41" cy="21" r="2.3" fill="#F472B6"/>
    <path d="M37.5 36 q4 -5 9 -2 q4 2 1 6 l1 4 l-4 -2 q-4 1 -7 -2 q-2 -3 0 -4 z" fill="#FFFFFF" stroke="#1F2937" stroke-width="1.4" stroke-linejoin="round"/>
    <circle cx="40.5" cy="38" r="0.9" fill="#1F2937"/>
    <circle cx="43.5" cy="38" r="0.9" fill="#1F2937"/>
    <circle cx="46.5" cy="38" r="0.9" fill="#1F2937"/>
    <path d="M19 38 l3 -2 l3 4 l3 -3" fill="none" stroke="#9333EA" stroke-width="1.6" stroke-linecap="round" stroke-linejoin="round"/>
  </g>
</svg>
